<?xml version="1.0" encoding="UTF-8" standalone="no"?>
<!DOCTYPE svg PUBLIC "-//W3C//DTD SVG 1.1//EN" "http://www.w3.org/Graphics/SVG/1.1/DTD/svg11.dtd">
<svg width="100%" height="100%" viewBox="0 0 128 128" version="1.1" xmlns="http://www.w3.org/2000/svg" xmlns:xlink="http://www.w3.org/1999/xlink" xml:space="preserve" xmlns:serif="http://www.serif.com/" style="fill-rule:evenodd;clip-rule:evenodd;stroke-linecap:round;stroke-linejoin:round;stroke-miterlimit:1.5;">
    <g transform="matrix(1.28,0,1.2326e-32,1.28,-128,-128)">
        <g transform="matrix(1.4547,0.570341,-0.570341,1.4547,103.198,-537.203)">
            <ellipse cx="182.204" cy="405.556" rx="3.885" ry="4.926" style="fill:none;stroke:black;stroke-width:0.25px;"/>
        </g>
        <g transform="matrix(1.54824,-0.210738,0.214138,1.57322,-231.11,-441.51)">
            <ellipse cx="189.175" cy="401.843" rx="2.45" ry="2.673" style="fill:none;stroke:black;stroke-width:0.25px;"/>
        </g>
        <g transform="matrix(1.50655,-0.414435,0.414435,1.50655,-304.768,-374.074)">
            <ellipse cx="193.68" cy="405.023" rx="1.711" ry="2.003" style="fill:none;stroke:black;stroke-width:0.25px;"/>
        </g>
        <g transform="matrix(1.20152,-0.684267,0.926422,1.62672,-450.609,-368.76)">
            <ellipse cx="198.411" cy="405.139" rx="2.998" ry="2.29" style="fill:none;stroke:black;stroke-width:0.24px;"/>
        </g>
        <g transform="matrix(1.49691,0.511409,-0.472938,1.3843,53.7412,-508.201)">
            <ellipse cx="200.765" cy="398.224" rx="1.812" ry="2.218" style="fill:none;stroke:black;stroke-width:0.26px;"/>
        </g>
        <g transform="matrix(1.21595,0.981284,-0.981284,1.21595,311.142,-541.827)">
            <ellipse cx="205.574" cy="395.042" rx="1.723" ry="2.708" style="fill:none;stroke:black;stroke-width:0.25px;"/>
        </g>
        <g transform="matrix(1.67264,-0.479361,0.43047,1.50205,-338.992,-360.439)">
            <ellipse cx="193.817" cy="397.923" rx="2.708" ry="3.877" style="fill:none;stroke:black;stroke-width:0.24px;"/>
        </g>
        <g transform="matrix(1.52092,-0.358099,0.378158,1.60612,-289.384,-427.008)">
            <ellipse cx="188.387" cy="395.251" rx="2.143" ry="2.578" style="fill:none;stroke:black;stroke-width:0.24px;"/>
        </g>
        <g transform="matrix(0.769051,1.36015,-1.61358,0.912346,630.571,-473.069)">
            <ellipse cx="183.451" cy="391.222" rx="1.934" ry="2.626" style="fill:none;stroke:black;stroke-width:0.23px;"/>
        </g>
        <g transform="matrix(1.17375,-0.858381,0.922356,1.26123,-432.558,-194.428)">
            <ellipse cx="192.168" cy="389.258" rx="2.999" ry="3.946" style="fill:none;stroke:black;stroke-width:0.26px;"/>
        </g>
        <g transform="matrix(1.51723,-0.209606,0.217725,1.576,-222.98,-441.151)">
            <ellipse cx="196.025" cy="384.749" rx="2.346" ry="3.055" style="fill:none;stroke:black;stroke-width:0.25px;"/>
        </g>
        <g transform="matrix(1.52409,-0.344369,0.395718,1.75135,-291.564,-483.687)">
            <ellipse cx="190.524" cy="381.812" rx="2.137" ry="2.038" style="fill:none;stroke:black;stroke-width:0.23px;"/>
        </g>
        <g transform="matrix(0.83867,1.54034,-1.66138,0.904572,629.726,-535.305)">
            <ellipse cx="200.86" cy="380.554" rx="2.091" ry="2.495" style="fill:none;stroke:black;stroke-width:0.21px;"/>
        </g>
        <g transform="matrix(1.25482,0.826921,-0.9099,1.38073,275.227,-580.411)">
            <ellipse cx="212.192" cy="394.109" rx="2.429" ry="3.103" style="fill:none;stroke:black;stroke-width:0.25px;"/>
        </g>
        <g transform="matrix(1.32463,-1.12531,1.10665,1.30266,-540.912,-131.417)">
            <ellipse cx="215.785" cy="400.819" rx="2.476" ry="3.152" style="fill:none;stroke:black;stroke-width:0.23px;"/>
        </g>
        <g transform="matrix(1.27694,-0.781884,0.899378,1.46883,-440.324,-269.47)">
            <ellipse cx="218.205" cy="394.965" rx="2.201" ry="2.836" style="fill:none;stroke:black;stroke-width:0.24px;"/>
        </g>
        <g transform="matrix(0.914411,1.267,-1.42742,1.03019,543.326,-534.628)">
            <ellipse cx="208.648" cy="389.055" rx="2.487" ry="3.159" style="fill:none;stroke:black;stroke-width:0.23px;"/>
        </g>
        <g transform="matrix(-0.715113,1.72989,-1.94384,-0.803553,1037.41,151.276)">
            <ellipse cx="179.895" cy="397.492" rx="2.309" ry="3.113" style="fill:none;stroke:black;stroke-width:0.2px;"/>
        </g>
        <g transform="matrix(0.351896,1.23355,-1.80686,0.515445,790.915,-271.714)">
            <ellipse cx="174.251" cy="402.322" rx="2.734" ry="3.234" style="fill:none;stroke:black;stroke-width:0.24px;"/>
        </g>
        <g transform="matrix(1.18185,-0.553848,0.580912,1.2396,-311.233,-252.147)">
            <ellipse cx="174.354" cy="395.237" rx="1.994" ry="2.564" style="fill:none;stroke:black;stroke-width:0.29px;"/>
        </g>
        <g transform="matrix(1.56251,0,-2.46519e-32,1.56251,-147.751,-477.008)">
            <ellipse cx="177.473" cy="389.819" rx="2.726" ry="3.25" style="fill:none;stroke:black;stroke-width:0.25px;"/>
        </g>
        <g transform="matrix(0.974615,1.2213,-1.2213,0.974615,423.718,-464.352)">
            <ellipse cx="174.455" cy="383.942" rx="2.048" ry="2.318" style="fill:none;stroke:black;stroke-width:0.25px;"/>
        </g>
        <g transform="matrix(0.0597939,-1.50339,1.88517,0.0749785,-600.589,345.609)">
            <ellipse cx="172.976" cy="378.755" rx="2.719" ry="3.552" style="fill:none;stroke:black;stroke-width:0.23px;"/>
        </g>
        <g transform="matrix(0.537413,-1.45356,1.72359,0.637251,-654.014,187.35)">
            <ellipse cx="196.142" cy="411.014" rx="2.462" ry="3.037" style="fill:none;stroke:black;stroke-width:0.23px;"/>
        </g>
        <g transform="matrix(1.45512,-0.940058,0.863838,1.33714,-480.904,-193.382)">
            <ellipse cx="203.665" cy="409.044" rx="1.507" ry="2.146" style="fill:none;stroke:black;stroke-width:0.23px;"/>
        </g>
        <g transform="matrix(1.16878,0.886031,-1.07712,1.42084,345.79,-605.359)">
            <ellipse cx="206.463" cy="383.714" rx="2.253" ry="2.09" style="fill:none;stroke:black;stroke-width:0.24px;"/>
        </g>
        <g transform="matrix(1.36268,0.459334,-0.456667,1.35476,71.0043,-486.318)">
            <ellipse cx="200.268" cy="389.161" rx="3.666" ry="5.219" style="fill:none;stroke:black;stroke-width:0.27px;"/>
        </g>
        <g transform="matrix(0.78665,1.37671,-1.55066,0.88605,601.173,-508.138)">
            <ellipse cx="207.95" cy="378.465" rx="2.376" ry="3.159" style="fill:none;stroke:black;stroke-width:0.23px;"/>
        </g>
        <g transform="matrix(0.697327,-1.09846,1.34046,0.850953,-477.926,29.5541)">
            <ellipse cx="213.403" cy="383.592" rx="3.129" ry="3.215" style="fill:none;stroke:black;stroke-width:0.27px;"/>
        </g>
        <g transform="matrix(0.0967886,1.50424,-1.77645,0.114303,863.274,-243.495)">
            <ellipse cx="218.899" cy="389.624" rx="2.485" ry="3.727" style="fill:none;stroke:black;stroke-width:0.24px;"/>
        </g>
        <g transform="matrix(0.625257,1.34443,-1.41679,0.658907,609.978,-363.915)">
            <ellipse cx="189.837" cy="409.926" rx="2.557" ry="3.027" style="fill:none;stroke:black;stroke-width:0.26px;"/>
        </g>
        <g transform="matrix(1.04837,0.995381,-1.28028,1.34843,483.518,-575.992)">
            <ellipse cx="188.197" cy="416.321" rx="2.971" ry="4.147" style="fill:none;stroke:black;stroke-width:0.23px;"/>
        </g>
        <g transform="matrix(0.748889,-1.39613,1.59851,0.857447,-655.509,89.1973)">
            <ellipse cx="196.669" cy="417.779" rx="1.788" ry="2.428" style="fill:none;stroke:black;stroke-width:0.23px;"/>
        </g>
        <g transform="matrix(1.4859,-0.483259,0.483259,1.4859,-327.532,-343.057)">
            <ellipse cx="212.859" cy="405.762" rx="2.063" ry="2.655" style="fill:none;stroke:black;stroke-width:0.25px;"/>
        </g>
        <g transform="matrix(1.43955,-0.607568,0.607568,1.43955,-367.864,-294.661)">
            <ellipse cx="217.882" cy="406.381" rx="1.782" ry="2.205" style="fill:none;stroke:black;stroke-width:0.25px;"/>
        </g>
        <g transform="matrix(1.53755,-0.278186,0.278186,1.53755,-257.25,-406.67)">
            <ellipse cx="215.788" cy="412.982" rx="2.93" ry="4.174" style="fill:none;stroke:black;stroke-width:0.25px;"/>
        </g>
        <g transform="matrix(0.290406,1.53529,-1.7602,0.33295,863.616,-287.819)">
            <ellipse cx="213.003" cy="420.004" rx="1.74" ry="2.021" style="fill:none;stroke:black;stroke-width:0.23px;"/>
        </g>
        <g transform="matrix(1.08101,1.12821,-1.27876,1.22526,428.611,-579.393)">
            <ellipse cx="203.064" cy="374.577" rx="2.144" ry="2.69" style="fill:none;stroke:black;stroke-width:0.23px;"/>
        </g>
        <g transform="matrix(1.64285,-0.225844,0.222447,1.61814,-247.294,-453.4)">
            <ellipse cx="195.548" cy="375.594" rx="3.404" ry="4.214" style="fill:none;stroke:black;stroke-width:0.24px;"/>
        </g>
        <g transform="matrix(1.55997,0.669555,-0.594934,1.38611,74.5012,-536.859)">
            <ellipse cx="188.308" cy="375.235" rx="2.806" ry="3.815" style="fill:none;stroke:black;stroke-width:0.24px;"/>
        </g>
        <g transform="matrix(1.10658,-1.16054,1.18873,1.13345,-522.29,-102.106)">
            <ellipse cx="183.174" cy="384.817" rx="4.104" ry="5.002" style="fill:none;stroke:black;stroke-width:0.24px;"/>
        </g>
        <g transform="matrix(1.37158,-0.695183,0.693879,1.369,-372.466,-279.887)">
            <ellipse cx="179.912" cy="373.818" rx="2.439" ry="4.095" style="fill:none;stroke:black;stroke-width:0.25px;"/>
        </g>
        <g transform="matrix(1.26702,-0.962958,0.957259,1.25952,-493.612,-149.704)">
            <ellipse cx="207.288" cy="425.438" rx="4.127" ry="5.57" style="fill:none;stroke:black;stroke-width:0.25px;"/>
        </g>
        <g transform="matrix(1.33494,-0.812028,0.826826,1.35926,-452.251,-215.948)">
            <ellipse cx="217.094" cy="426.607" rx="2.64" ry="3.218" style="fill:none;stroke:black;stroke-width:0.25px;"/>
        </g>
        <g transform="matrix(0.647423,1.49019,-1.52097,0.660795,668.349,-418.218)">
            <ellipse cx="208.426" cy="411.247" rx="2.487" ry="3.037" style="fill:none;stroke:black;stroke-width:0.24px;"/>
        </g>
        <g transform="matrix(1.21792,0.856711,-0.878073,1.24828,275.981,-528.16)">
            <ellipse cx="207.167" cy="402.291" rx="3.759" ry="4.882" style="fill:none;stroke:black;stroke-width:0.26px;"/>
        </g>
        <g transform="matrix(1.40499,0.666395,-0.707176,1.49097,173.335,-570.493)">
            <ellipse cx="184.392" cy="412.85" rx="1.69" ry="1.892" style="fill:none;stroke:black;stroke-width:0.24px;"/>
        </g>
        <g transform="matrix(1.33788,-0.835546,0.882401,1.4129,-477.205,-262.752)">
            <ellipse cx="181.375" cy="418.631" rx="2.838" ry="3.449" style="fill:none;stroke:black;stroke-width:0.24px;"/>
        </g>
        <g transform="matrix(0.832399,1.2421,-1.5041,1.00798,625.877,-479.079)">
            <ellipse cx="190.743" cy="419.523" rx="2.356" ry="3.009" style="fill:none;stroke:black;stroke-width:0.24px;"/>
        </g>
        <g transform="matrix(1.53882,0.134002,-0.11793,1.35426,-95.3832,-414.665)">
            <ellipse cx="178.401" cy="412.185" rx="2.993" ry="2.117" style="fill:none;stroke:black;stroke-width:0.27px;"/>
        </g>
        <g transform="matrix(1.28915,1.02745,-1.01233,1.27017,313.338,-535.532)">
            <ellipse cx="172.966" cy="408.81" rx="2.707" ry="3.639" style="fill:none;stroke:black;stroke-width:0.24px;"/>
        </g>
        <g transform="matrix(1.54752,-0.21591,0.21591,1.54752,-235.079,-433.481)">
            <ellipse cx="172.686" cy="416.453" rx="3.675" ry="2.631" style="fill:none;stroke:black;stroke-width:0.25px;"/>
        </g>
        <g transform="matrix(1.59662,-0.684631,0.697573,1.6268,-447.244,-388.827)">
            <ellipse cx="168.059" cy="421.371" rx="1.826" ry="2.263" style="fill:none;stroke:black;stroke-width:0.22px;"/>
        </g>
        <g transform="matrix(1.6001,0.446648,-0.444006,1.59063,33.3592,-567.503)">
            <ellipse cx="175.106" cy="424.417" rx="3.295" ry="4.07" style="fill:none;stroke:black;stroke-width:0.24px;"/>
        </g>
        <g transform="matrix(1.48593,-0.722638,0.703714,1.44702,-424.864,-282.032)">
            <ellipse cx="203.453" cy="415.519" rx="2.694" ry="3.384" style="fill:none;stroke:black;stroke-width:0.24px;"/>
        </g>
        <g transform="matrix(1.50489,0.745042,-0.657235,1.32753,137.093,-536.126)">
            <ellipse cx="210.379" cy="416.509" rx="2.031" ry="2.861" style="fill:none;stroke:black;stroke-width:0.25px;"/>
        </g>
        <g transform="matrix(1.55756,-0.124255,0.124255,1.55756,-199.012,-450.092)">
            <ellipse cx="199.872" cy="420.503" rx="2.196" ry="1.948" style="fill:none;stroke:black;stroke-width:0.25px;"/>
        </g>
        <g transform="matrix(1.49202,0.464036,-0.464036,1.49202,63.6226,-539.215)">
            <ellipse cx="198.671" cy="425.33" rx="3.085" ry="2.118" style="fill:none;stroke:black;stroke-width:0.25px;"/>
        </g>
        <g transform="matrix(1.53515,0.291123,-0.291123,1.53515,-18.2663,-521.413)">
            <ellipse cx="192.63" cy="426.674" rx="2.471" ry="2.01" style="fill:none;stroke:black;stroke-width:0.25px;"/>
        </g>
        <g transform="matrix(1.53174,-0.308588,0.308588,1.53174,-272.96,-406.454)">
            <ellipse cx="186.319" cy="424.329" rx="2.723" ry="2.939" style="fill:none;stroke:black;stroke-width:0.25px;"/>
        </g>
        <g transform="matrix(1.51056,-0.331367,0.316141,1.44115,-272.716,-365.316)">
            <ellipse cx="180.813" cy="425.086" rx="1.857" ry="2.174" style="fill:none;stroke:black;stroke-width:0.26px;"/>
        </g>
        <g transform="matrix(1.71867,0.587085,-0.530459,1.5529,52.6361,-576.337)">
            <ellipse cx="178.094" cy="429.129" rx="1.514" ry="2.017" style="fill:none;stroke:black;stroke-width:0.23px;"/>
        </g>
        <g transform="matrix(1.46728,0.258012,-0.251615,1.4309,-34.8245,-483.392)">
            <ellipse cx="216.271" cy="374.458" rx="2.756" ry="4.258" style="fill:none;stroke:black;stroke-width:0.27px;"/>
        </g>
        <g transform="matrix(1.56858,-0.774666,0.700053,1.4175,-420.602,-289.803)">
            <ellipse cx="169.474" cy="389.828" rx="2.933" ry="3.682" style="fill:none;stroke:black;stroke-width:0.23px;"/>
        </g>
        <g transform="matrix(1.5441,0.23919,-0.229797,1.48346,-53.3449,-485.85)">
            <ellipse cx="169.218" cy="397.41" rx="2.08" ry="3.562" style="fill:none;stroke:black;stroke-width:0.25px;"/>
        </g>
        <g transform="matrix(1.52689,-0.33174,0.33174,1.52689,-274.265,-408.33)">
            <ellipse cx="164.18" cy="398.992" rx="1.754" ry="1.952" style="fill:none;stroke:black;stroke-width:0.25px;"/>
        </g>
        <g transform="matrix(1.54784,-0.213651,0.213651,1.54784,-231.759,-435.659)">
            <ellipse cx="165.744" cy="404.585" rx="4.188" ry="2.785" style="fill:none;stroke:black;stroke-width:0.25px;"/>
        </g>
        <g transform="matrix(1.43661,-0.614482,0.614482,1.43661,-379.582,-322.712)">
            <ellipse cx="166.798" cy="411.453" rx="2.23" ry="2.848" style="fill:none;stroke:black;stroke-width:0.25px;"/>
        </g>
        <g transform="matrix(1.61846,-0.560046,0.52885,1.52831,-378.39,-370.027)">
            <ellipse cx="164.599" cy="417.008" rx="3.022" ry="2.01" style="fill:none;stroke:black;stroke-width:0.23px;"/>
        </g>
        <g transform="matrix(1.57856,0.423338,-0.411981,1.53622,3.36289,-537.946)">
            <ellipse cx="166.89" cy="373.732" rx="2.802" ry="2.312" style="fill:none;stroke:black;stroke-width:0.24px;"/>
        </g>
        <g transform="matrix(1.55536,0.149365,-0.204033,2.12463,-70.5501,-713.543)">
            <ellipse cx="173.525" cy="371.429" rx="2.747" ry="3.216" style="fill:none;stroke:black;stroke-width:0.21px;"/>
        </g>
        <g transform="matrix(1.55536,0.149365,-0.204033,2.12463,-70.5501,-613.543)">
            <ellipse cx="173.525" cy="371.429" rx="2.747" ry="3.216" style="fill:none;stroke:black;stroke-width:0.21px;"/>
        </g>
        <g transform="matrix(1.56633,-0.359328,0.375032,1.63478,-195.637,-447.633)">
            <ellipse cx="161.759" cy="393.22" rx="4.532" ry="2.886" style="fill:none;stroke:black;stroke-width:0.24px;"/>
        </g>
        <g transform="matrix(1.53904,0.269822,-0.283781,1.61866,65.6187,-542.581)">
            <ellipse cx="161.899" cy="386.107" rx="3.684" ry="2.579" style="fill:none;stroke:black;stroke-width:0.24px;"/>
        </g>
        <g transform="matrix(1.47334,-0.520313,0.520313,1.47334,-331.957,-355.127)">
            <ellipse cx="168.616" cy="382.927" rx="2.3" ry="1.916" style="fill:none;stroke:black;stroke-width:0.25px;"/>
        </g>
        <g transform="matrix(1.55185,-0.415625,0.455287,1.69994,-318.68,-460.564)">
            <ellipse cx="163.843" cy="379.17" rx="3.651" ry="2.177" style="fill:none;stroke:black;stroke-width:0.23px;"/>
        </g>
        <g transform="matrix(1.76279,0.319916,-0.332931,1.83451,56.378,-639.69)">
            <ellipse cx="160.003" cy="411.419" rx="3.116" ry="3.793" style="fill:none;stroke:black;stroke-width:0.21px;"/>
        </g>
        <g transform="matrix(1.74507,-0.818598,0.811361,1.72965,-422.973,-416.851)">
            <ellipse cx="161.281" cy="424.538" rx="3.888" ry="2.554" style="fill:none;stroke:black;stroke-width:0.2px;"/>
        </g>
        <g transform="matrix(1.49474,-0.166001,0.175429,1.57964,-212.192,-555.931)">
            <ellipse cx="167.347" cy="429.313" rx="3.899" ry="4.435" style="fill:none;stroke:black;stroke-width:0.25px;"/>
        </g>
        <g transform="matrix(1.49474,-0.166001,0.175429,1.57964,-212.192,-455.931)">
            <ellipse cx="167.347" cy="429.313" rx="3.899" ry="4.435" style="fill:none;stroke:black;stroke-width:0.25px;"/>
        </g>
        <g transform="matrix(1.88627,-0.354594,0.376166,2.00103,-339.162,-484.495)">
            <ellipse cx="158.838" cy="371.262" rx="3.579" ry="4.435" style="fill:none;stroke:black;stroke-width:0.2px;"/>
        </g>
        <g transform="matrix(1.88627,-0.354594,0.376166,2.00103,-239.162,-484.495)">
            <ellipse cx="158.838" cy="371.262" rx="3.579" ry="4.435" style="fill:none;stroke:black;stroke-width:0.2px;"/>
        </g>
        <g transform="matrix(1.88627,-0.354594,0.376166,2.00103,-339.162,-584.496)">
            <ellipse cx="158.838" cy="371.262" rx="3.579" ry="4.435" style="fill:none;stroke:black;stroke-width:0.2px;"/>
        </g>
        <g transform="matrix(1.88627,-0.354594,0.376166,2.00103,-239.162,-584.496)">
            <ellipse cx="158.838" cy="371.262" rx="3.579" ry="4.435" style="fill:none;stroke:black;stroke-width:0.2px;"/>
        </g>
        <g transform="matrix(1.64065,0.315216,-0.298908,1.55577,-51.3941,-543.928)">
            <ellipse cx="220.003" cy="380.812" rx="2.792" ry="3.91" style="fill:none;stroke:black;stroke-width:0.24px;"/>
        </g>
        <g transform="matrix(1.64065,0.315216,-0.298908,1.55577,-151.394,-543.928)">
            <ellipse cx="220.003" cy="380.812" rx="2.792" ry="3.91" style="fill:none;stroke:black;stroke-width:0.24px;"/>
        </g>
        <g transform="matrix(1.64108,0.250967,-0.236936,1.54933,-76.5406,-524.718)">
            <ellipse cx="209.376" cy="371.1" rx="2.782" ry="3.066" style="fill:none;stroke:black;stroke-width:0.24px;"/>
        </g>
        <g transform="matrix(1.64108,0.250967,-0.236936,1.54933,-76.5406,-424.718)">
            <ellipse cx="209.376" cy="371.1" rx="2.782" ry="3.066" style="fill:none;stroke:black;stroke-width:0.24px;"/>
        </g>
        <g transform="matrix(1.7387,0.11991,-0.135149,1.95966,-124.63,-772.089)">
            <ellipse cx="199.865" cy="431.815" rx="5.352" ry="2.683" style="fill:none;stroke:black;stroke-width:0.21px;"/>
        </g>
        <g transform="matrix(1.7387,0.11991,-0.135149,1.95966,-124.63,-672.088)">
            <ellipse cx="199.865" cy="431.815" rx="5.352" ry="2.683" style="fill:none;stroke:black;stroke-width:0.21px;"/>
        </g>
        <g transform="matrix(1.19547,-1.06871,1.09357,1.22328,-548.939,-229.526)">
            <ellipse cx="188.572" cy="432.021" rx="2.252" ry="3.534" style="fill:none;stroke:black;stroke-width:0.24px;"/>
        </g>
        <g transform="matrix(1.19547,-1.06871,1.09357,1.22328,-548.939,-129.526)">
            <ellipse cx="188.572" cy="432.021" rx="2.252" ry="3.534" style="fill:none;stroke:black;stroke-width:0.24px;"/>
        </g>
        <g transform="matrix(1.64129,-0.0562022,0.060345,1.76227,-187.694,-651.94)">
            <ellipse cx="183.451" cy="431.394" rx="2.397" ry="3.407" style="fill:none;stroke:black;stroke-width:0.23px;"/>
        </g>
        <g transform="matrix(1.64129,-0.0562022,0.060345,1.76227,-187.694,-551.94)">
            <ellipse cx="183.451" cy="431.394" rx="2.397" ry="3.407" style="fill:none;stroke:black;stroke-width:0.23px;"/>
        </g>
        <g transform="matrix(1.84605,0.0970985,-0.085417,1.62396,-59.1053,-517.411)">
            <ellipse cx="158.671" cy="402.297" rx="2.591" ry="3.745" style="fill:none;stroke:black;stroke-width:0.22px;"/>
        </g>
        <g transform="matrix(1.44763,0.588048,-0.588048,1.44763,130.229,-553.631)">
            <ellipse cx="214.463" cy="430.822" rx="2.334" ry="1.68" style="fill:none;stroke:black;stroke-width:0.25px;"/>
        </g>
        <g transform="matrix(1.43856,-0.50966,0.550822,1.55474,-351.808,-361.479)">
            <ellipse cx="220.719" cy="419.375" rx="3.464" ry="2.024" style="fill:none;stroke:black;stroke-width:0.25px;"/>
        </g>
        <g transform="matrix(1.56633,-0.359328,0.375032,1.63478,-295.637,-447.633)">
            <ellipse cx="161.759" cy="393.22" rx="4.532" ry="2.886" style="fill:none;stroke:black;stroke-width:0.24px;"/>
        </g>
        <g transform="matrix(1.53904,0.269822,-0.283781,1.61866,-34.3812,-542.581)">
            <ellipse cx="161.899" cy="386.107" rx="3.684" ry="2.579" style="fill:none;stroke:black;stroke-width:0.24px;"/>
        </g>
        <g transform="matrix(1.76279,0.319916,-0.332931,1.83451,-43.622,-639.69)">
            <ellipse cx="160.003" cy="411.419" rx="3.116" ry="3.793" style="fill:none;stroke:black;stroke-width:0.21px;"/>
        </g>
        <g transform="matrix(1.74507,-0.818598,0.811361,1.72965,-522.973,-416.851)">
            <ellipse cx="161.281" cy="424.538" rx="3.888" ry="2.554" style="fill:none;stroke:black;stroke-width:0.2px;"/>
        </g>
        <g transform="matrix(1.84605,0.0970985,-0.085417,1.62396,-159.105,-517.411)">
            <ellipse cx="158.671" cy="402.297" rx="2.591" ry="3.745" style="fill:none;stroke:black;stroke-width:0.22px;"/>
        </g>
        <g transform="matrix(1.43856,-0.50966,0.550822,1.55474,-451.808,-361.479)">
            <ellipse cx="220.719" cy="419.375" rx="3.464" ry="2.024" style="fill:none;stroke:black;stroke-width:0.25px;"/>
        </g>
    </g>
</svg>
